<svg xmlns="http://www.w3.org/2000/svg" width="207" height="242" fill="none" viewBox="0 0 207 242">
  <g clip-path="url(#a)">
    <path stroke="#10ABF9" d="m148.45 62.007.116.067 30.92 17.858h.001c1.628.945 2.628 2.724 2.605 4.646l-.5-.005.5.006-33.642-22.572Zm0 0h-.003m.003 0h-.003m0 0c-1.209-.747-1.969-2.105-1.994-3.595l-.276-18.333c-.045-3.327 3.379-5.379 6.101-3.783l51.169 30.005c1.284.752 2.088 2.167 2.088 3.712l.021 46.558-57.109-54.564Zm33.439 45.096-.5-.004.5.005v-.001Zm2.031 3.727-.26.427.26-.427Z"/>
    <path stroke="#006394" stroke-width="2" d="m201.888 144.816-.031-.018-42.99-25.5h-.001a4.808 4.808 0 0 0-4.98.04l-.001.001-54.49 33.489c-3.269 2.009-3.276 6.947-.013 8.968l102.506-16.98Zm0 0 .011.006m-.011-.006.011.006m0 0c1.505.913 2.46 2.586 2.49 4.431v.001m-2.49-4.432 2.49 4.432m0 0 .433 28.798v.001c.03 1.904-.938 3.658-2.501 4.597l-95.827 57.462-.002.002a4.8 4.8 0 0 1-4.907.024l-.002-.002-61.285-35.928h-.001c-1.56-.923-2.544-2.654-2.544-4.544v-.001l.035-71.624v-.001c0-1.876.962-3.594 2.5-4.514l65.631-39.306c2.13-1.277 3.441-3.61 3.473-6.132l.582-41.909c.04-2.83-1.53-5.438-4.044-6.641a6.786 6.786 0 0 0-6.533.358l-70.67 43.753c-2.08 1.286-3.35 3.578-3.39 6.057L23.648 184.86c-.066 4.082-4.324 6.411-7.554 4.372v-.001l-12.522-7.896c-1.485-.94-2.409-2.619-2.409-4.448v-.001L1 63.727c0-1.892.98-3.623 2.537-4.544l200.852 90.071ZM110.99 168.97l-11.608-7.173 77.668-3.523-16.01-11.216-.002-.001a6.8 6.8 0 0 0-7.393-.29l-.001.001-37.673 22.255v.001a4.807 4.807 0 0 1-4.98-.053l-.001-.001ZM3.538 59.182 101.117 1.67l.001-.001a4.8 4.8 0 0 1 4.926.023l.002.001 23.946 14.396c1.521.914 2.483 2.615 2.495 4.479l.426 71.756c.006 1.897-.963 3.632-2.519 4.558l-66.098 39.314c-2.169 1.291-3.497 3.664-3.498 6.221v.002l-.141 43.476c-.01 2.601 1.341 5.017 3.555 6.303l35.59 20.647a6.805 6.805 0 0 0 6.835.001l.001-.001 69.956-40.448.001-.001c2.272-1.319 3.628-3.815 3.564-6.473v-.003l-.05-1.871c-.058-2.308-1.187-4.466-3.058-5.775L3.538 59.182Z"/>
  </g>
  <defs>
    <clipPath id="a">
      <path fill="#fff" d="M0 0h207v242H0z"/>
    </clipPath>
  </defs>
</svg>
